<svg width="25" height="25" viewBox="0 0 25 25" fill="none" xmlns="http://www.w3.org/2000/svg">
<g clip-path="url(#clip0_234_3152)">
<path d="M24.3832 11.8794L18.8048 6.30096C18.6045 6.06696 18.2523 6.03969 18.0183 6.24012C17.7843 6.44051 17.757 6.79267 17.9575 7.02667C17.9762 7.04848 17.9965 7.06885 18.0183 7.0875L22.6428 11.7176L0.557824 11.7176C0.249765 11.7176 0 11.9674 0 12.2755C0 12.5836 0.249765 12.8333 0.557824 12.8333L22.6428 12.8333L18.0183 17.4578C17.7843 17.6582 17.757 18.0103 17.9575 18.2443C18.1579 18.4783 18.51 18.5056 18.744 18.3052C18.7658 18.2865 18.7862 18.2661 18.8048 18.2443L24.3833 12.6659C24.5995 12.4484 24.5995 12.097 24.3832 11.8794Z" fill="white"/>
</g>
<defs>
<clipPath id="clip0_234_3152">
<rect width="24.5455" height="24.5455" fill="white"/>
</clipPath>
</defs>
</svg>
