<svg width="81" height="80" viewBox="0 0 81 80" fill="none" xmlns="http://www.w3.org/2000/svg">
<g clip-path="url(#clip0_193_4406)">
<path d="M51.8942 40.0613L46.3158 34.4828C46.1154 34.2488 45.7633 34.2216 45.5293 34.422C45.2953 34.6224 45.268 34.9746 45.4685 35.2086C45.4871 35.2304 45.5075 35.2507 45.5293 35.2694L50.1538 39.8995H28.0688C27.7608 39.8995 27.511 40.1492 27.511 40.4573C27.511 40.7655 27.7608 41.0152 28.0688 41.0152H50.1538L45.5293 45.6397C45.2953 45.84 45.268 46.1922 45.4685 46.4262C45.6689 46.6602 46.021 46.6875 46.255 46.487C46.2768 46.4683 46.2972 46.448 46.3158 46.4262L51.8943 40.8478C52.1105 40.6303 52.1105 40.2789 51.8942 40.0613Z" fill="white"/>
</g>
<path d="M68.0392 67.8008C62.5407 73.2993 55.5352 77.0438 47.9085 78.5609C40.2819 80.0779 32.3767 79.2993 25.1926 76.3235C18.0084 73.3478 11.8681 68.3085 7.54792 61.8429C3.22778 55.3774 0.921911 47.776 0.921911 39.9999C0.921911 32.2239 3.22778 24.6225 7.54791 18.1569C11.8681 11.6914 18.0084 6.65211 25.1926 3.67635C32.3767 0.700584 40.2819 -0.0780104 47.9085 1.43902C55.5352 2.95605 62.5407 6.70057 68.0392 12.1991" stroke="white"/>
<defs>
<clipPath id="clip0_193_4406">
<rect width="24.5455" height="24.5455" fill="green" transform="translate(27.511 28.1819)"/>
</clipPath>
</defs>
</svg>
