<svg width="278" height="68" viewBox="0 0 278 68" fill="none" xmlns="http://www.w3.org/2000/svg">
<path fill-rule="evenodd" clip-rule="evenodd" d="M237.643 1.42421C237.643 1.84927 238.238 1.69124 239.334 1.69124V40.9425C239.334 41.9896 239.695 43.0535 240.074 43.762C240.265 44.1179 240.56 44.5141 240.824 44.7921L241.759 45.7265C245.248 48.9841 252.539 48.2592 254.912 43.4368C255.335 42.5758 255.533 41.5184 255.533 40.2304V1.69124H257.135V0.356201H248.59C248.218 0.356201 248.323 0.66505 248.323 1.42421C248.323 1.84927 248.919 1.69124 250.014 1.69124V44.0577C250.014 45.3357 248.583 46.5936 247.203 46.4299C245.702 46.2519 244.763 45.141 244.763 43.6127V1.69124C246.791 1.69124 246.454 2.00086 246.454 0.356201H237.643V1.42421Z" fill="white"/>
<path fill-rule="evenodd" clip-rule="evenodd" d="M9.43457 46.1048H7.12038V1.69124H9.7016C10.8081 1.69124 12.0157 2.91671 12.0157 4.00534V43.6127C12.0157 44.9615 10.788 46.1048 9.43457 46.1048ZM0 1.42421C0 1.84927 0.595918 1.69124 1.6911 1.69124V46.1048H0V47.3509H10.1466C12.8204 47.3509 15.7635 45.4562 16.9422 43.0208C17.3547 42.1685 17.534 41.1016 17.534 39.8745V7.83255C17.534 6.00711 17.1623 4.70282 16.1382 3.44314C15.5115 2.67223 14.9113 2.13866 14.0471 1.618C12.7167 0.816534 11.1707 0.356201 9.43457 0.356201H0V1.42421Z" fill="white"/>
<path fill-rule="evenodd" clip-rule="evenodd" d="M31.3303 21.8954H28.9271V1.69124H31.5082C32.6147 1.69124 33.8223 2.91671 33.8223 4.00534V19.5813C33.8223 20.6266 32.6992 21.8954 31.3303 21.8954ZM21.8066 1.42421C21.8066 1.84927 22.4026 1.69124 23.4977 1.69124V46.1048H21.8066V47.3509H30.6182C30.6182 45.8135 30.9428 46.1048 28.9271 46.1048V23.2305C30.8031 23.2305 31.742 22.9764 32.8454 23.7624C34.2584 24.7689 33.8223 26.9109 33.8223 28.5708C33.8223 31.2462 33.6723 41.9973 33.9472 43.7549C34.2856 45.9183 35.8425 47.3509 38.0056 47.3509H40.9428V46.1048C40.3441 46.1048 39.9085 45.9912 39.6417 45.6258C39.3077 45.1684 39.3386 44.8042 39.3406 44.0578L39.3428 29.1918C39.3516 27.0217 38.6283 25.2707 37.0897 23.9684C36.6932 23.6329 35.2709 22.6539 34.7125 22.6075C34.867 22.3964 35.8128 22.0633 36.53 21.5768C38.5566 20.2016 39.3407 18.4035 39.3407 15.6651V7.83255C39.3407 5.67504 38.6143 3.71017 36.9894 2.44047C36.5623 2.10666 36.3243 1.9015 35.8537 1.618C34.5234 0.816534 32.9773 0.356201 31.2412 0.356201H21.8066V1.42421Z" fill="white"/>
<path fill-rule="evenodd" clip-rule="evenodd" d="M203.912 21.8954H201.509V1.69124H204.09C205.197 1.69124 206.404 2.91671 206.404 4.00534V19.5813C206.404 20.1627 205.93 20.9112 205.617 21.197C205.228 21.5526 204.639 21.8954 203.912 21.8954ZM194.389 1.42421C194.389 1.84927 194.984 1.69124 196.08 1.69124V46.1048H194.389V47.3509H203.2C203.2 45.8135 203.525 46.1048 201.509 46.1048V23.2305C203.698 23.2305 205.357 22.8135 206.256 24.8919C206.601 25.6885 206.404 27.5189 206.404 28.5708C206.404 31.2462 206.254 41.9973 206.529 43.7549C206.867 45.9183 208.424 47.3509 210.588 47.3509H213.525V46.1048C211.983 46.1048 211.92 45.2435 211.922 44.0578L211.925 29.1918C211.93 28.0294 211.683 26.8488 211.301 26.0771C210.877 25.219 210.382 24.5699 209.672 23.9684C209.275 23.6329 207.853 22.6539 207.294 22.6075C207.481 22.3525 207.641 22.3969 208.215 22.1045C208.527 21.946 208.827 21.7699 209.112 21.5768C211.139 20.2016 211.923 18.4035 211.923 15.6651V7.83255C211.923 5.00608 210.762 3.01972 208.436 1.618C208.046 1.38306 207.576 1.12721 207.129 0.966766C206.186 0.628141 205.128 0.356201 203.823 0.356201H194.389V1.42421Z" fill="white"/>
<path fill-rule="evenodd" clip-rule="evenodd" d="M222.957 43.6126V4.0052C222.957 0.629741 228.297 0.141555 228.297 4.36126V43.3456C228.297 46.6141 225.138 47.0863 223.735 45.6821C223.609 45.5561 223.246 45.0104 223.168 44.8255C223.039 44.5195 222.957 44.0179 222.957 43.6126ZM225.123 0H225.8C227.73 0.09569 229.764 0.706545 231.214 1.97788C231.593 2.30947 231.848 2.46568 232.176 2.88535C233.048 4.00115 233.726 5.14962 233.726 6.85345V40.7643C233.726 41.7521 233.458 42.9637 232.979 43.7554C232.484 44.5732 231.975 45.1012 231.302 45.7276C229.812 47.1141 227.72 47.7068 225.271 47.7068C221.492 47.7068 217.527 44.6559 217.527 41.1204V6.76441C217.527 5.12669 218.239 3.87616 219.156 2.78532C220.459 1.23433 222.987 0.110241 225.123 0Z" fill="white"/>
<path fill-rule="evenodd" clip-rule="evenodd" d="M173.916 6.76441V41.1204C173.916 42.1018 174.349 43.2294 174.733 43.8638C176.054 46.0497 178.762 47.7068 181.659 47.7068C185.107 47.7068 187.742 46.4424 189.368 43.7554C189.568 43.4251 189.782 42.8366 189.902 42.4202C190.04 41.9408 190.115 41.3416 190.115 40.7643V21.8953H182.193C181.822 21.8953 181.926 22.2041 181.926 22.9634C181.926 23.1685 181.988 23.2303 182.193 23.2303H184.686V43.3456C184.686 45.1428 183.792 46.232 182.156 46.4295C180.725 46.6022 179.345 45.3924 179.345 43.6126V4.0052C179.345 1.45414 182.46 0.472186 183.997 2.20135C184.466 2.72808 184.686 3.39608 184.686 4.36126V14.5079H190.115V6.85345C190.115 5.14962 189.437 4.00115 188.565 2.88535C188.237 2.46568 187.981 2.30947 187.603 1.97788C186.153 0.706545 184.119 0.09569 182.189 0H181.886C181.441 0.0232239 180.645 0.121515 180.399 0.163434C179.056 0.391529 177.496 1.01202 176.52 1.89163C175.117 3.15575 173.916 4.47517 173.916 6.76441Z" fill="white"/>
<path fill-rule="evenodd" clip-rule="evenodd" d="M77.0781 1.42421C77.0781 1.84927 77.674 1.69124 78.7692 1.69124V46.1048H77.0781V47.3509H85.8897C85.8897 45.8135 86.2144 46.1048 84.1986 46.1048L84.2551 25.2211L89.9839 47.3509H96.5703V46.1048H94.8792C93.852 41.6956 92.3158 36.4047 91.1943 31.8997L87.4918 17.6232C87.4918 17.3382 88.0168 15.9645 88.1524 15.6136L93.1881 1.69124C93.517 1.69124 93.8436 1.69124 94.1723 1.69644C95.0055 1.70964 94.8792 1.84561 94.8792 0.356201H89.8059C89.8059 2.00828 89.5255 1.69124 91.408 1.69124C91.3728 2.11476 90.3089 4.84516 90.0858 5.44233L84.1986 21.6284V1.69124C86.187 1.69124 85.8897 1.94506 85.8897 0.623133C85.8897 0.418069 85.8277 0.356201 85.6227 0.356201H77.0781V1.42421Z" fill="white"/>
<path fill-rule="evenodd" clip-rule="evenodd" d="M131.904 1.42421C131.904 1.84927 132.5 1.69124 133.595 1.69124V46.1048H131.904V47.3509H136.978V46.1048H135.286L135.376 11.2148C135.376 11.6678 136.214 15.2488 136.337 15.7717C138.419 24.6649 140.334 33.9972 142.372 42.9354C142.553 43.7302 142.705 44.3973 142.874 45.1925C142.991 45.7427 143.216 47.3509 143.564 47.3509H147.747V1.69124C149.736 1.69124 149.438 1.94506 149.438 0.623133C149.438 0.418069 149.376 0.356201 149.171 0.356201H144.543C144.171 0.356201 144.276 0.66505 144.276 1.42421C144.276 1.84927 144.872 1.69124 145.967 1.69124L145.823 32.0076C145.776 31.808 145.749 31.6231 145.718 31.4903L139.203 2.40328C139.125 2.07246 139.053 1.74799 138.974 1.38634C138.895 1.02844 138.784 0.666206 138.758 0.356201H131.904V1.42421Z" fill="white"/>
<path fill-rule="evenodd" clip-rule="evenodd" d="M56.248 1.42421C56.248 1.84927 56.844 1.69124 57.9392 1.69124V46.1048H56.248V47.3509H61.3214V46.1048H59.6302L59.7193 11.2148C59.7193 11.6513 59.8309 11.9343 59.9195 12.3495L60.6806 15.7717C61.7238 20.2266 62.6634 24.9334 63.7069 29.3895L67.218 45.1925C67.2905 45.5328 67.3882 45.9579 67.4804 46.3542C67.789 47.6805 66.9846 47.3509 72.091 47.3509V1.69124C74.0794 1.69124 73.7821 1.94506 73.7821 0.623133C73.7821 0.418069 73.7201 0.356201 73.515 0.356201H68.8867C68.5152 0.356201 68.6198 0.66505 68.6198 1.42421C68.6198 1.84927 69.2156 1.69124 70.3109 1.69124V32.398C70.1698 32.1757 70.116 31.725 70.0615 31.4903L67.5865 20.4366C67.2785 19.0861 66.9531 17.7205 66.6838 16.444C66.396 15.0797 66.0706 13.7374 65.7939 12.4386L63.1015 0.356201H56.248V1.42421Z" fill="white"/>
<path fill-rule="evenodd" clip-rule="evenodd" d="M269.688 25.9897H267.284V1.69124H269.866C270.972 1.69124 272.18 2.91671 272.18 4.00534V23.6756C272.18 24.2569 271.705 25.0053 271.392 25.2912C271.003 25.6468 270.414 25.9897 269.688 25.9897ZM260.164 1.42421C260.164 1.84927 260.76 1.69124 261.855 1.69124V46.1048H260.164V47.3509H268.976C268.976 45.8135 269.3 46.1048 267.284 46.1048V27.3247C269.146 27.3247 270.965 27.4081 272.637 26.8027C273.837 26.3683 274.831 25.6955 275.715 24.8964L277 23.1554C277.488 22.2206 277.698 21.1559 277.698 19.7593V7.83255C277.698 6.5457 277.483 5.50149 277.075 4.62824C276.889 4.23045 276.583 3.7888 276.302 3.44314C275.675 2.67223 275.075 2.13866 274.211 1.618C273.821 1.38306 273.351 1.12721 272.904 0.966766C271.961 0.628141 270.904 0.356201 269.599 0.356201H260.164V1.42421Z" fill="white"/>
<path fill-rule="evenodd" clip-rule="evenodd" d="M119.625 0.623133C119.625 1.94506 119.327 1.69124 121.316 1.69124V46.1048C119.3 46.1048 119.625 45.8135 119.625 47.3509H128.436V46.1048H126.745V1.69124C128.773 1.69124 128.436 2.00086 128.436 0.356201H119.892C119.687 0.356201 119.625 0.418069 119.625 0.623133Z" fill="white"/>
<path fill-rule="evenodd" clip-rule="evenodd" d="M44.0583 0.623133C44.0583 1.94506 43.761 1.69124 45.7494 1.69124V46.1048C43.7337 46.1048 44.0583 45.8135 44.0583 47.3509H52.8698V46.1048H51.1787V1.69124C53.2068 1.69124 52.8698 2.00086 52.8698 0.356201H44.3254C44.1202 0.356201 44.0583 0.418069 44.0583 0.623133Z" fill="white"/>
<path fill-rule="evenodd" clip-rule="evenodd" d="M150.863 61.7695C150.863 60.8297 150.86 57.5546 151.659 57.0469C151.85 56.926 154.722 56.1377 155.191 57.7975C155.595 59.2255 155.606 63.6263 155.277 65.1154C154.937 66.6569 154.377 66.3978 152.376 66.3978C151.36 66.3978 151.14 65.5503 151.047 64.7013C150.943 63.7559 150.863 62.8062 150.863 61.7695ZM153.978 67.9998H152.425C151.107 67.9506 150.074 67.6323 149.537 65.9435C149.171 64.7904 148.994 63.1829 148.994 61.6804C148.994 60.1138 149.193 58.2953 149.628 57.1523C150.183 55.6967 151.235 55.2721 152.821 55.2721C154.501 55.2721 156.036 55.3114 156.664 56.8588C157.531 58.9953 157.726 64.1853 156.709 66.3693C156.187 67.4914 155.477 67.9998 153.978 67.9998Z" fill="white"/>
<path fill-rule="evenodd" clip-rule="evenodd" d="M169.732 63.9057C169.732 62.6379 170.56 61.5025 171.779 61.5025C172.541 61.5025 173.19 61.4826 173.809 62.1431C174.539 62.9231 175.129 66.3978 171.868 66.3978C170.571 66.3978 169.732 65.2325 169.732 63.9057ZM172.65 67.9999H171.46C168.477 67.5853 166.418 64.05 169.09 59.7929C170.027 58.3009 171.399 56.7428 172.684 55.554C173.036 55.2282 174.259 55.3612 175.072 55.3612C174.982 55.701 174.505 55.9749 173.982 56.4959C173.282 57.1925 171.463 59.3298 171.067 60.0784C171.83 60.0149 172.185 59.7089 173.432 60.0271C173.806 60.1223 174.102 60.2368 174.38 60.4143C174.954 60.7792 175.315 61.1435 175.681 61.695C176.769 63.3361 176.415 66.6904 173.726 67.7222C173.366 67.8607 173.005 67.9519 172.65 67.9999Z" fill="white"/>
<path fill-rule="evenodd" clip-rule="evenodd" d="M140.092 58.12C140.807 57.9537 141.772 56.785 143.742 56.785C144.502 56.785 145.522 57.4759 145.522 58.2091C145.522 59.4797 145.34 59.8045 144.163 60.677C142.987 61.5479 141.359 62.3185 140.597 63.6979C139.835 65.0787 139.914 66.1811 139.914 67.7326H147.302C147.302 66.7198 147.445 66.2195 147.035 66.2195H141.873C141.873 64.0581 142.871 63.6551 144.845 62.339C146.044 61.5399 147.48 60.5876 147.48 58.6541C147.48 55.2655 143.521 54.6743 140.866 55.7783C140.488 55.9355 140.137 56.0457 140.089 56.5148C140.047 56.9329 140.092 57.6668 140.092 58.12Z" fill="white"/>
<path fill-rule="evenodd" clip-rule="evenodd" d="M111.79 58.921C111.79 61.7214 113.622 61.936 115.768 63.1317C117.001 63.8186 117.041 64.0186 117.041 65.0623C117.041 65.6743 116.202 66.3975 115.617 66.3975C114.654 66.3975 113.481 66.5036 113.481 64.6173H111.701C111.701 65.3259 111.732 65.5937 112.003 66.2739C112.433 67.3549 113.569 67.9137 114.798 67.9995H115.474C117.21 67.8813 118.911 66.8582 118.911 65.0623C118.911 63.2188 118.168 62.3686 116.597 61.5905C115.71 61.1512 113.57 60.3494 113.57 59.1881C113.57 57.5648 115.894 57.4596 116.622 58.1833C116.762 58.3219 116.843 58.4751 116.907 58.6998C117.077 59.3021 116.636 59.1881 118.822 59.1881C118.725 54.8546 111.79 55.5935 111.79 58.921Z" fill="white"/>
<path fill-rule="evenodd" clip-rule="evenodd" d="M102.533 67.7331H109.565V66.22H104.224V62.5708H108.764V61.0577H104.224V57.9426H109.387V56.4294H102.533V67.7331Z" fill="white"/>
<path fill-rule="evenodd" clip-rule="evenodd" d="M159.496 57.8535V60.0787C159.981 59.9493 161.87 57.9315 162.522 57.5865V67.8222H164.391V55.7174C164.391 55.2853 163.744 55.4504 162.611 55.4504C162.367 55.4504 161.994 55.858 161.823 55.997L159.496 57.8535Z" fill="white"/>
<path fill-rule="evenodd" clip-rule="evenodd" d="M120.959 57.7646C120.959 57.9696 121.021 58.0316 121.226 58.0316H123.985V67.8221H125.676V58.0316H128.435C128.853 58.0316 128.702 57.4847 128.702 56.4294H120.959V57.7646Z" fill="white"/>
<path fill-rule="evenodd" clip-rule="evenodd" d="M132.439 67.8216H136.089V64.8844H132.439V67.8216Z" fill="white"/>
</svg>
