<svg width="24" height="24" viewBox="0 0 24 24" fill="none" xmlns="http://www.w3.org/2000/svg">
<path d="M21 18V15C21 14.8011 20.921 14.6103 20.7803 14.4697C20.6397 14.329 20.4489 14.25 20.25 14.25C20.0511 14.25 19.8603 14.329 19.7197 14.4697C19.579 14.6103 19.5 14.8011 19.5 15V18C19.5 18.1989 19.421 18.3897 19.2803 18.5303C19.1397 18.671 18.9489 18.75 18.75 18.75H5.25C5.05109 18.75 4.86032 18.671 4.71967 18.5303C4.57902 18.3897 4.5 18.1989 4.5 18V15C4.5 14.8011 4.42098 14.6103 4.28033 14.4697C4.13968 14.329 3.94891 14.25 3.75 14.25C3.55109 14.25 3.36032 14.329 3.21967 14.4697C3.07902 14.6103 3 14.8011 3 15V18C3 18.5967 3.23705 19.169 3.65901 19.591C4.08097 20.0129 4.65326 20.25 5.25 20.25H18.75C19.3467 20.25 19.919 20.0129 20.341 19.591C20.7629 19.169 21 18.5967 21 18ZM16.215 14.085L12.465 17.085C12.3326 17.1896 12.1688 17.2465 12 17.2465C11.8312 17.2465 11.6674 17.1896 11.535 17.085L7.785 14.085C7.64836 13.956 7.56511 13.7805 7.55173 13.593C7.53834 13.4056 7.59578 13.22 7.7127 13.0729C7.82962 12.9258 7.99749 12.828 8.18309 12.7987C8.3687 12.7695 8.55852 12.811 8.715 12.915L11.25 14.94V4.5C11.25 4.30109 11.329 4.11032 11.4697 3.96967C11.6103 3.82902 11.8011 3.75 12 3.75C12.1989 3.75 12.3897 3.82902 12.5303 3.96967C12.671 4.11032 12.75 4.30109 12.75 4.5V14.94L15.285 12.915C15.3605 12.8437 15.45 12.7889 15.5478 12.754C15.6457 12.7191 15.7497 12.7049 15.8533 12.7123C15.9569 12.7197 16.0578 12.7485 16.1496 12.797C16.2415 12.8454 16.3223 12.9124 16.3869 12.9937C16.4516 13.075 16.4986 13.1689 16.5251 13.2693C16.5515 13.3697 16.5568 13.4745 16.5407 13.5771C16.5245 13.6797 16.4872 13.7778 16.4312 13.8653C16.3751 13.9527 16.3015 14.0275 16.215 14.085Z" fill="white"/>
</svg>
